<svg width="120" height="105" viewBox="0 0 120 105" fill="none" xmlns="http://www.w3.org/2000/svg">
<g clip-path="url(#clip0)">
<path fill-rule="evenodd" clip-rule="evenodd" d="M24.9244 0.0133667C18.0773 0.0133667 13.0109 6.5945 13.2377 13.7316C13.4555 20.5884 13.1726 29.4689 11.1368 36.711C9.09375 43.9734 5.64094 48.5756 0 49.1662V55.8354C5.64094 56.4274 9.09375 61.0272 11.1366 68.2906C13.1726 75.5327 13.4552 84.4133 13.2375 91.2701C13.0106 98.4061 18.0771 104.988 24.9253 104.988H95.0848C101.932 104.988 106.997 98.4071 106.77 91.2701C106.553 84.4133 106.836 75.5327 108.871 68.2906C110.914 61.0272 114.359 56.4256 120 55.8354V49.1662C114.359 48.5743 110.915 43.9744 108.871 36.711C106.835 29.4699 106.553 20.5884 106.77 13.7316C106.997 6.59553 101.932 0.0133667 95.0848 0.0133667H24.9234H24.9244ZM81.356 64.6323C81.356 74.4597 74.6808 80.4198 63.603 80.4198H44.7457C44.2063 80.4198 43.6889 80.1845 43.3075 79.7656C42.9261 79.3467 42.7118 78.7786 42.7118 78.1863V26.8156C42.7118 26.2232 42.9261 25.6551 43.3075 25.2363C43.6889 24.8174 44.2063 24.5821 44.7457 24.5821H63.4957C72.7327 24.5821 78.7948 30.0766 78.7948 38.5124C78.7948 44.4333 74.7166 49.734 69.5212 50.6626V50.9715C76.5938 51.8234 81.356 57.2026 81.356 64.6323ZM61.5469 31.6623H50.7947V48.3403H59.8507C66.8515 48.3403 70.7116 45.2446 70.7116 39.7112C70.7109 34.5256 67.3922 31.6623 61.5469 31.6623ZM50.7947 54.9577V73.3373H61.9425C69.2316 73.3373 73.0924 70.1255 73.0924 64.0895C73.0924 58.0535 69.1233 54.9567 61.4737 54.9567H50.7947V54.9577Z" fill="#7952B3"/>
</g>
<defs>
<clipPath id="clip0">
<rect width="120" height="105" fill="white"/>
</clipPath>
</defs>
</svg>
