<svg width="42" height="42" viewBox="0 0 42 42" fill="none" xmlns="http://www.w3.org/2000/svg">
<circle cx="21" cy="21" r="21" fill="black"/>
<path d="M34.9933 33V32.9989H35V23.0966C35 18.2524 33.9571 14.5208 28.2939 14.5208C25.5714 14.5208 23.7444 16.0148 22.9985 17.4311H22.9198V14.973H17.5501V32.9989H23.1414V24.0731C23.1414 21.723 23.5869 19.4505 26.4973 19.4505C29.3649 19.4505 29.4076 22.1325 29.4076 24.2239V33H34.9933Z" fill="white"/>
<path d="M8.4455 14.9741H14.0435V33H8.4455V14.9741Z" fill="white"/>
<path d="M11.2422 6C9.45238 6 8 7.45238 8 9.24225C8 11.0321 9.45238 12.5149 11.2422 12.5149C13.0321 12.5149 14.4845 11.0321 14.4845 9.24225C14.4834 7.45238 13.031 6 11.2422 6V6Z" fill="white"/>
</svg>
