<svg width="42" height="42" viewBox="0 0 42 42" fill="none" xmlns="http://www.w3.org/2000/svg">
<circle cx="21" cy="21" r="21" fill="black"/>
<g clip-path="url(#clip0)">
<path d="M36.2073 10.9023L39 8.23062V7.64583H29.3254L22.4304 24.8075L14.586 7.64583H4.44188V8.23062L7.70417 12.1579C8.02208 12.4481 8.18833 12.8725 8.14604 13.2998V28.7333C8.24667 29.289 8.06583 29.8606 7.675 30.2646L4 34.7183V35.2958H14.4198V34.711L10.7448 30.2646C10.3467 29.8592 10.1585 29.2977 10.2387 28.7333V15.3837L19.3854 35.3031H20.4485L28.3133 15.3837V31.2519C28.3133 31.6704 28.3133 31.7565 28.0392 32.0306L25.21 34.7679V35.3542H38.9358V34.7694L36.2088 32.0992C35.9696 31.9183 35.8456 31.615 35.8967 31.3204V11.681C35.8456 11.385 35.9681 11.0817 36.2073 10.9023Z" fill="white"/>
</g>
<defs>
<clipPath id="clip0">
<rect width="35" height="35" fill="white" transform="translate(4 4)"/>
</clipPath>
</defs>
</svg>
