<svg width="100" height="100" viewBox="0 0 100 100" fill="none" xmlns="http://www.w3.org/2000/svg">
<path d="M0 31H100V64.4286H50V70H27.7778V64.4286H0V31ZM5.55556 58.8571H16.6667V42.1429H22.2222V58.8571H27.7778V36.5714H5.55556V58.8571ZM33.3333 36.5714V64.4286H44.4444V58.8571H55.5556V36.5714H33.3333ZM44.4444 42.1429H50V53.2857H44.4444V42.1429ZM61.1111 36.5714V58.8571H72.2222V42.1429H77.7778V58.8571H83.3333V42.1429H88.8889V58.8571H94.4444V36.5714H61.1111Z" fill="#CB3837"/>
<path d="M5.55554 58.8571H16.6667V42.1428H22.2222V58.8571H27.7778V36.5714H5.55554V58.8571Z" fill="white"/>
<path d="M33.3333 36.5714V64.4286H44.4445V58.8571H55.5556V36.5714H33.3333ZM50 53.2857H44.4445V42.1428H50V53.2857Z" fill="white"/>
<path d="M61.1111 36.5714V58.8571H72.2222V42.1428H77.7778V58.8571H83.3333V42.1428H88.8889V58.8571H94.4444V36.5714H61.1111Z" fill="white"/>
</svg>
