<svg width="100" height="100" viewBox="0 0 100 100" fill="none" xmlns="http://www.w3.org/2000/svg">
<g clip-path="url(#clip0)">
<path d="M82.2204 34.8465C81.1561 34.4812 80.083 34.143 79.0012 33.8319C79.1806 33.1029 79.3464 32.3708 79.4987 31.6355C81.9354 19.8029 80.3421 10.2706 74.9013 7.13267C69.6848 4.12302 61.153 7.26106 52.5363 14.7618C51.6873 15.5026 50.8573 16.2645 50.0465 17.0475C49.5037 16.527 48.9513 16.0167 48.3895 15.5166C39.359 7.49579 30.3072 4.11619 24.8721 7.26337C19.6605 10.2813 18.1168 19.243 20.3106 30.4567C20.5289 31.5672 20.7752 32.6716 21.0497 33.7699C19.769 34.1337 18.532 34.5216 17.3486 34.9342C6.76148 38.6264 0 44.4134 0 50.4156C0 56.6152 7.25804 62.8335 18.2859 66.6033C19.1801 66.9076 20.0814 67.1895 20.9899 67.4489C20.6949 68.6319 20.433 69.8223 20.2043 71.0202C18.1128 82.0391 19.7463 90.7883 24.9442 93.7877C30.313 96.8843 39.3236 93.7013 48.0978 86.0292C48.7913 85.4228 49.4869 84.7814 50.1845 84.1052C51.0625 84.9526 51.9636 85.775 52.8877 86.5724C61.3867 93.8881 69.7803 96.8423 74.9739 93.835C80.3377 90.7289 82.0806 81.3299 79.8173 69.8944C79.6447 69.0209 79.4449 68.1296 79.2177 67.2204C79.8506 67.0336 80.4705 66.84 81.0774 66.6396C92.5415 62.8406 100 56.698 100 50.4156C100 44.3917 93.0208 38.5657 82.2204 34.8465ZM55.3409 17.9857C62.7237 11.5584 69.6237 9.02093 72.7677 10.8347C76.1161 12.7666 77.4186 20.5569 75.3147 30.7732C75.1767 31.4388 75.0269 32.1016 74.865 32.7619C70.4596 31.7631 65.9929 31.0572 61.4943 30.6489C58.9169 26.9451 56.0929 23.4193 53.0413 20.0956C53.7902 19.3734 54.5568 18.6701 55.3409 17.9857ZM29.5266 55.543C30.4309 57.2904 31.3759 59.0157 32.3617 60.7191C33.3672 62.4562 34.4137 64.1686 35.5012 65.8563C32.4059 65.5203 29.3299 65.0256 26.2853 64.3741C27.1681 61.5221 28.256 58.5578 29.5266 55.543ZM29.5217 45.4927C28.2777 42.5412 27.2133 39.6393 26.3441 36.837C29.1973 36.1981 32.2398 35.6762 35.41 35.2799C34.3489 36.9355 33.327 38.6155 32.3444 40.3197C31.3634 42.0217 30.4225 43.746 29.5217 45.4927ZM31.7925 50.5183C33.1088 47.7778 34.5266 45.0897 36.046 42.454V42.4549C37.5639 39.8205 39.1802 37.2466 40.8947 34.7332C43.8687 34.5083 46.918 34.3905 50.0005 34.3905C53.0966 34.3905 56.1499 34.5092 59.123 34.7359C60.8191 37.2435 62.4252 39.8087 63.9412 42.4314C65.4648 45.0593 66.9018 47.7347 68.2522 50.4576C66.9165 53.2068 65.4842 55.9059 63.9553 58.5547H63.9549C62.4401 61.187 60.841 63.768 59.1575 66.2976C56.1906 66.5097 53.1245 66.619 50 66.619C46.8883 66.619 43.8612 66.5221 40.946 66.333C39.2198 63.8106 37.5907 61.2257 36.0588 58.5782C34.5352 55.9465 33.1131 53.2599 31.7925 50.5183H31.7925ZM67.6557 60.6895C68.6615 58.9445 69.6282 57.1778 70.5557 55.3894C71.8266 58.2625 72.9475 61.1996 73.9139 64.189C70.8342 64.8813 67.7205 65.4122 64.5855 65.7797C65.6426 64.1035 66.6659 62.4067 67.6556 60.6895H67.6557ZM70.5151 45.4958C69.591 43.7416 68.6321 42.0065 67.6385 40.2905C66.6609 38.6013 65.6473 36.9338 64.5976 35.2879C67.7885 35.6908 70.8454 36.2265 73.7157 36.8821C72.7943 39.8053 71.7261 42.6802 70.5151 45.4958H70.5151ZM50.0478 23.1516C52.1278 25.4197 54.0919 27.7915 55.9326 30.2579C51.9951 30.0718 48.0554 30.0709 44.1135 30.2553C46.0565 27.6924 48.0465 25.3115 50.0478 23.1516ZM27.0123 10.9617C30.3581 9.02445 37.7556 11.7869 45.5527 18.712C46.051 19.1547 46.5516 19.6182 47.053 20.0977C43.9837 23.4207 41.138 26.9436 38.5345 30.6431C34.0464 31.0457 29.589 31.7387 25.1903 32.7176C24.9353 31.6962 24.7062 30.6688 24.503 29.6355V29.636C22.6234 20.0279 23.8715 12.7805 27.0123 10.9617ZM22.1362 63.3328C21.3072 63.0955 20.4843 62.8378 19.6676 62.5598C15.4327 61.227 11.4791 59.1261 8.00435 56.362C7.00882 55.6788 6.16395 54.7986 5.52195 53.7758C4.87994 52.753 4.45446 51.6094 4.27178 50.4156C4.27178 46.7735 9.7007 42.1273 18.7551 38.9694C19.8916 38.5748 21.0389 38.2137 22.197 37.8861C23.5414 42.2002 25.1696 46.4205 27.0709 50.5196C25.1457 54.6773 23.4972 58.9577 22.1362 63.3328V63.3328ZM45.2867 82.8115C42.0169 85.8155 38.2222 88.1918 34.0925 89.8218H34.092C33.0032 90.3431 31.819 90.6354 30.6127 90.6808C29.4064 90.7262 28.2037 90.5236 27.0787 90.0856C23.9241 88.2661 22.6133 81.2404 24.4017 71.8174C24.6143 70.7038 24.8578 69.5967 25.1321 68.4962C29.5748 69.4508 34.0772 70.1028 38.6082 70.4477C41.2342 74.1682 44.1016 77.7122 47.1921 81.0566C46.5713 81.6571 45.9361 82.242 45.2867 82.8115ZM50.166 77.9816C48.1412 75.796 46.1218 73.3788 44.1493 70.7788C46.0638 70.8542 48.0141 70.8919 50 70.8921C52.0384 70.8921 54.0506 70.8474 56.0366 70.758C54.2044 73.2646 52.2449 75.6756 50.166 77.9815V77.9816ZM76.1073 83.927C76.015 85.131 75.6769 86.3032 75.1138 87.3713C74.5507 88.4394 73.7745 89.3806 72.8334 90.1368C69.6819 91.9616 62.9421 89.5896 55.6743 83.3332C54.841 82.6161 54.0028 81.8517 53.1597 81.04C56.1902 77.6839 58.9906 74.1269 61.5418 70.3932C66.0989 70.0086 70.6242 69.3108 75.0856 68.3049C75.2892 69.1284 75.4696 69.935 75.6269 70.7248C76.5955 75.0587 76.7584 79.5341 76.1073 83.927V83.927ZM79.7341 62.5837H79.7337C79.1871 62.7647 78.626 62.9396 78.0542 63.1092C76.6558 58.7749 74.964 54.541 72.9903 50.4367C74.8893 46.3874 76.5152 42.2155 77.8572 37.9489C78.88 38.2455 79.8731 38.5578 80.8299 38.8874C90.0839 42.0736 95.7284 46.7853 95.7284 50.4155C95.7284 54.2826 89.6321 59.3029 79.7341 62.5838V62.5837Z" fill="#61DAFB"/>
<path d="M50 41.483C51.7662 41.483 53.4927 42.0069 54.9612 42.9884C56.4298 43.9699 57.5744 45.365 58.2503 46.9972C58.9262 48.6295 59.103 50.4255 58.7585 52.1583C58.4139 53.8911 57.5634 55.4828 56.3146 56.7321C55.0657 57.9813 53.4745 58.8321 51.7423 59.1767C50.0101 59.5214 48.2146 59.3445 46.5828 58.6684C44.9511 57.9923 43.5565 56.8473 42.5753 55.3783C41.5941 53.9093 41.0704 52.1822 41.0704 50.4155C41.0704 48.0465 42.0112 45.7744 43.6858 44.0993C45.3605 42.4241 47.6317 41.483 50 41.483" fill="#61DAFB"/>
</g>
<defs>
<clipPath id="clip0">
<rect width="100" height="89" fill="white" transform="translate(0 6)"/>
</clipPath>
</defs>
</svg>
