<svg width="42" height="42" viewBox="0 0 42 42" fill="none" xmlns="http://www.w3.org/2000/svg">
<circle cx="21" cy="21" r="21" fill="black"/>
<g clip-path="url(#clip0)">
<path d="M32.94 16.7176C32.94 16.4735 32.93 16.2361 32.9175 16.0021C34.1375 15.2225 35.1637 14.2494 36 13.1289V13.1277C34.8838 13.5676 33.6963 13.8601 32.4563 14.0019C33.7313 13.3167 34.705 12.2401 35.1625 10.943C33.9737 11.5809 32.6612 12.0309 31.2625 12.2829C30.1337 11.2006 28.525 10.5312 26.77 10.5312C23.365 10.5312 20.6238 13.0186 20.6238 16.0674C20.6238 16.5061 20.665 16.928 20.7662 17.3296C15.6537 17.1046 11.1287 14.8996 8.08875 11.5392C7.55875 12.3684 7.24625 13.3167 7.24625 14.3371C7.24625 16.2541 8.3425 17.9529 9.97875 18.9372C8.99 18.9204 8.02125 18.6616 7.2 18.2555V18.3162C7.2 21.0061 9.33125 23.2404 12.1275 23.7556C11.1875 23.9874 10.03 23.9784 9.35125 23.8434C10.1475 26.0349 12.41 27.647 15.0975 27.6999C13.005 29.1725 10.3475 30.0601 7.47125 30.0601C6.9675 30.0601 6.48375 30.0399 6 29.9847C8.725 31.5654 11.9525 32.4687 15.435 32.4687C26.7525 32.4687 32.94 24.0312 32.94 16.7176Z" fill="white"/>
</g>
<defs>
<clipPath id="clip0">
<rect width="30" height="27" fill="white" transform="translate(6 8)"/>
</clipPath>
</defs>
</svg>
