<svg width="120" height="105" fill="none" xmlns="http://www.w3.org/2000/svg"><g clip-path="url(#clip0)"><path fill-rule="evenodd" clip-rule="evenodd" d="M24.924.013c-6.847 0-11.913 6.582-11.686 13.719.218 6.856-.065 15.737-2.101 22.979C9.094 43.973 5.64 48.576 0 49.166v6.67c5.64.591 9.094 5.191 11.137 12.455 2.036 7.242 2.318 16.122 2.1 22.98-.226 7.135 4.84 13.717 11.688 13.717h70.16c6.847 0 11.912-6.58 11.685-13.718-.217-6.857.066-15.737 2.101-22.98 2.043-7.263 5.488-11.864 11.129-12.455v-6.669c-5.641-.592-9.085-5.192-11.129-12.455-2.036-7.241-2.318-16.123-2.101-22.98.227-7.135-4.838-13.718-11.685-13.718H24.923h.001zm56.432 64.62c0 9.827-6.675 15.787-17.753 15.787H44.746a1.95 1.95 0 01-1.439-.654 2.35 2.35 0 01-.595-1.58v-51.37c0-.593.214-1.16.595-1.58a1.946 1.946 0 011.439-.654h18.75c9.237 0 15.299 5.495 15.299 13.93 0 5.921-4.078 11.222-9.274 12.15v.31c7.073.851 11.835 6.23 11.835 13.66zm-19.81-32.97h-10.75V48.34h9.056c7 0 10.86-3.095 10.86-8.629 0-5.185-3.319-8.049-9.164-8.049zm-10.75 23.294v18.38h11.148c7.289 0 11.15-3.212 11.15-9.248 0-6.037-3.97-9.133-11.62-9.133H50.796z" fill="#7952B3"/></g><defs><clipPath id="clip0"><path fill="#fff" d="M0 0h120v105H0z"/></clipPath></defs></svg>