<svg width="42" height="42" fill="none" xmlns="http://www.w3.org/2000/svg"><g clip-path="url(#clip0)"><path d="M21 .875c-11.602 0-21 9.24-21 20.636 0 9.12 6.016 16.853 14.359 19.579 1.05.194 1.435-.445 1.435-.992 0-.49-.018-1.789-.027-3.509-5.841 1.244-7.073-2.768-7.073-2.768-.956-2.382-2.336-3.02-2.336-3.02-1.902-1.278.147-1.252.147-1.252 2.109.143 3.216 2.126 3.216 2.126 1.873 3.155 4.916 2.244 6.117 1.717.188-1.336.73-2.244 1.33-2.76-4.664-.516-9.566-2.29-9.566-10.197 0-2.252.814-4.093 2.161-5.537-.236-.522-.945-2.62.184-5.462 0 0 1.759-.553 5.775 2.116a20.502 20.502 0 015.25-.697c1.785.01 3.57.238 5.25.697 3.99-2.669 5.749-2.116 5.749-2.116 1.128 2.842.42 4.94.21 5.462 1.339 1.444 2.152 3.285 2.152 5.537 0 7.927-4.909 9.672-9.581 10.18.735.619 1.418 1.884 1.418 3.818 0 2.761-.027 4.98-.027 5.65 0 .541.368 1.187 1.444.98C35.989 38.356 42 30.617 42 21.512 42 10.115 32.597.875 21 .875z" fill="#212121"/></g><defs><clipPath id="clip0"><path fill="#fff" d="M0 0h42v42H0z"/></clipPath></defs></svg>