<svg width="42" height="42" fill="none" xmlns="http://www.w3.org/2000/svg"><circle cx="21" cy="21" r="21" fill="#000"/><g clip-path="url(#clip0)"><path d="M36.207 10.902L39 8.231v-.585h-9.675L22.43 24.808 14.586 7.646H4.442v.585l3.262 3.927c.318.29.484.715.442 1.142v15.433a1.76 1.76 0 01-.471 1.532L4 34.718v.578h10.42v-.585l-3.675-4.446a1.815 1.815 0 01-.506-1.532v-13.35l9.146 19.92h1.063l7.865-19.92v15.869c0 .418 0 .505-.274.779l-2.829 2.737v.586h13.726v-.585l-2.727-2.67a.811.811 0 01-.312-.779V11.681a.808.808 0 01.31-.779z" fill="#fff"/></g><defs><clipPath id="clip0"><path fill="#fff" transform="translate(4 4)" d="M0 0h35v35H0z"/></clipPath></defs></svg>