<svg width="100" height="100" fill="none" xmlns="http://www.w3.org/2000/svg"><path d="M0 31h100v33.429H50V70H27.778v-5.571H0V31zm5.556 27.857h11.11V42.143h5.556v16.714h5.556V36.571H5.556v22.286zm27.777-22.286V64.43h11.111v-5.572h11.112V36.571H33.333zm11.111 5.572H50v11.143h-5.556V42.143zm16.667-5.572v22.286h11.111V42.143h5.556v16.714h5.555V42.143h5.556v16.714h5.555V36.571H61.111z" fill="#CB3837"/><path d="M5.556 58.857h11.11V42.143h5.556v16.714h5.556V36.571H5.556v22.286zm27.777-22.286V64.43h11.111v-5.572h11.112V36.571H33.333zM50 53.286h-5.556V42.143H50v11.143zm11.111-16.715v22.286h11.111V42.143h5.556v16.714h5.555V42.143h5.556v16.714h5.555V36.571H61.111z" fill="#fff"/></svg>