<svg width="100" height="100" fill="none" xmlns="http://www.w3.org/2000/svg"><g clip-path="url(#clip0)" fill="#61DAFB"><path d="M82.22 34.846a66.689 66.689 0 00-3.219-1.014c.18-.73.345-1.461.498-2.197 2.436-11.832.843-21.364-4.598-24.502-5.216-3.01-13.748.128-22.365 7.629a66.908 66.908 0 00-2.49 2.285 60.859 60.859 0 00-1.657-1.53c-9.03-8.021-18.082-11.4-23.517-8.254-5.212 3.018-6.755 11.98-4.561 23.194.218 1.11.464 2.215.739 3.313a66.728 66.728 0 00-3.701 1.164C6.76 38.626 0 44.414 0 50.416c0 6.2 7.258 12.418 18.286 16.187.894.305 1.795.587 2.704.846a65.604 65.604 0 00-.786 3.571c-2.091 11.02-.458 19.768 4.74 22.768 5.369 3.096 14.38-.087 23.154-7.759a55.326 55.326 0 002.087-1.924 64.38 64.38 0 002.703 2.467c8.499 7.316 16.892 10.27 22.086 7.263 5.364-3.106 7.107-12.505 4.843-23.94a55.058 55.058 0 00-.6-2.675c.634-.186 1.254-.38 1.86-.58C92.542 62.84 100 56.698 100 50.416c0-6.024-6.98-11.85-17.78-15.57zm-26.88-16.86c7.384-6.428 14.284-8.965 17.428-7.151 3.348 1.932 4.65 9.722 2.547 19.938a56.61 56.61 0 01-.45 1.989 102.285 102.285 0 00-13.37-2.113 100.39 100.39 0 00-8.454-10.553 62.867 62.867 0 012.3-2.11zM29.528 55.543A125.371 125.371 0 0035.5 65.856a90.949 90.949 0 01-9.216-1.482 95.794 95.794 0 013.242-8.831zm-.005-10.05a94.343 94.343 0 01-3.178-8.656 96.35 96.35 0 019.066-1.557 125.653 125.653 0 00-5.888 10.213zm2.27 5.025a121.286 121.286 0 014.254-8.064 120.088 120.088 0 014.849-7.72 120.992 120.992 0 0118.228.002 128.608 128.608 0 014.818 7.695 140.104 140.104 0 014.311 8.027 128.686 128.686 0 01-4.297 8.097 140.07 140.07 0 01-4.797 7.743c-2.967.212-6.034.321-9.158.321-3.112 0-6.139-.097-9.054-.286a121.245 121.245 0 01-9.153-15.815zM67.656 60.69a135.928 135.928 0 002.9-5.3 90.78 90.78 0 013.358 8.799 90.66 90.66 0 01-9.329 1.59 149.318 149.318 0 003.07-5.09zm2.86-15.194a148.68 148.68 0 00-2.878-5.206 135.856 135.856 0 00-3.04-5.002c3.19.403 6.247.939 9.118 1.594a91.164 91.164 0 01-3.2 8.614zM50.047 23.152a91.365 91.365 0 015.885 7.106 125.747 125.747 0 00-11.82-.003 94.233 94.233 0 015.935-7.103zm-23.036-12.19c3.346-1.938 10.744.825 18.54 7.75.499.443 1 .906 1.501 1.386a102.389 102.389 0 00-8.518 10.545 104.347 104.347 0 00-13.345 2.075 62.55 62.55 0 01-.687-3.083v.001c-1.88-9.608-.631-16.855 2.51-18.674zm-4.876 52.37a52.47 52.47 0 01-2.468-.772 36.184 36.184 0 01-11.664-6.198 8.83 8.83 0 01-3.732-5.946c0-3.642 5.429-8.289 14.483-11.447a61.667 61.667 0 013.442-1.083A102.497 102.497 0 0027.07 50.52a104.049 104.049 0 00-4.935 12.813zm23.15 19.48a36.18 36.18 0 01-11.194 7.01 8.826 8.826 0 01-7.013.264c-3.155-1.82-4.466-8.846-2.677-18.269.212-1.113.456-2.22.73-3.32 4.443.954 8.945 1.606 13.476 1.95a103.977 103.977 0 008.584 10.61 53.04 53.04 0 01-1.905 1.754zm4.88-4.83a96.018 96.018 0 01-6.017-7.203c1.915.075 3.865.113 5.851.113 2.038 0 4.05-.045 6.037-.134a90.872 90.872 0 01-5.871 7.224zm25.941 5.945a8.833 8.833 0 01-3.274 6.21c-3.151 1.825-9.89-.547-17.159-6.804a60.992 60.992 0 01-2.514-2.293 100.55 100.55 0 008.382-10.647 99.698 99.698 0 0013.544-2.088c.203.823.384 1.63.54 2.42a36.198 36.198 0 01.481 13.202zm3.627-21.343a57.51 57.51 0 01-1.68.525 100.312 100.312 0 00-5.064-12.672 100.26 100.26 0 004.867-12.488c1.023.297 2.016.609 2.973.938 9.254 3.187 14.898 7.898 14.898 11.529 0 3.867-6.096 8.887-15.994 12.168z"/><path d="M50 41.483a8.928 8.928 0 018.25 5.514 8.936 8.936 0 01-6.508 12.18 8.927 8.927 0 01-10.672-8.761A8.934 8.934 0 0150 41.483"/></g><defs><clipPath id="clip0"><path fill="#fff" transform="translate(0 6)" d="M0 0h100v89H0z"/></clipPath></defs></svg>