<svg width="42" height="42" fill="none" xmlns="http://www.w3.org/2000/svg"><circle cx="21" cy="21" r="21" fill="#000"/><g clip-path="url(#clip0)"><path d="M32.94 16.718c0-.244-.01-.482-.023-.716A11.678 11.678 0 0036 13.13v-.001a13.98 13.98 0 01-3.544.874c1.275-.685 2.249-1.762 2.706-3.059a13.165 13.165 0 01-3.9 1.34c-1.128-1.082-2.737-1.752-4.492-1.752-3.405 0-6.146 2.488-6.146 5.536 0 .44.041.861.142 1.263-5.112-.225-9.637-2.43-12.677-5.79-.53.828-.843 1.777-.843 2.797 0 1.917 1.096 3.616 2.733 4.6a6.604 6.604 0 01-2.779-.681v.06c0 2.69 2.131 4.924 4.927 5.44-.94.231-2.097.222-2.776.087.796 2.192 3.059 3.804 5.746 3.857-2.092 1.473-4.75 2.36-7.626 2.36-.503 0-.987-.02-1.471-.075 2.725 1.58 5.953 2.484 9.435 2.484 11.318 0 17.505-8.438 17.505-15.751z" fill="#fff"/></g><defs><clipPath id="clip0"><path fill="#fff" transform="translate(6 8)" d="M0 0h30v27H0z"/></clipPath></defs></svg>