<svg width="13" height="13" fill="none" xmlns="http://www.w3.org/2000/svg"><path d="M8.094 10.75H2.78A2.66 2.66 0 01.125 8.094V2.78A2.66 2.66 0 012.781.125h5.313a2.66 2.66 0 012.656 2.656v5.313a2.66 2.66 0 01-2.656 2.656zM2.78 1.187a1.594 1.594 0 00-1.594 1.594v5.313A1.594 1.594 0 002.78 9.688h5.313a1.594 1.594 0 001.594-1.594V2.78a1.594 1.594 0 00-1.594-1.594H2.78zm10.094 9.032V3.313a.531.531 0 00-1.063 0v6.906a1.594 1.594 0 01-1.593 1.594H3.313a.531.531 0 000 1.062h6.906a2.66 2.66 0 002.656-2.656z" fill="#222"/></svg>